<svg xmlns="http://www.w3.org/2000/svg" width="256.3" height="256" viewBox="210.8 444 256.3 256" enable-background="new 210.8 444 256.3 256"><style type="text/css">.st0{fill:#913123;}</style><circle cx="338.2" cy="572" r="128"/><path class="st0" d="M282.3 554v-28.4c8-2.7 14.7-6.3 20.2-11 5.5-4.4 9.9-10.1 13.4-17.2 3.5-6.8 5.8-15.3 7-25.4h28.6v50.6h47.4v31.4h-47.4v51.2c0 11.5.6 18.9 1.8 22.4 1.2 3.2 3.5 5.8 6.8 7.8 4.5 2.7 9.6 4 15.2 4 10.3 0 20.3-3.3 30.2-9.8v31.4c-8.4 4.1-16.1 7-23.2 8.6-6.9 1.6-14.4 2.4-22.4 2.4-9.1 0-17.2-1.1-24.4-3.4-7.3-2.5-13.3-5.9-17.8-10-4.8-4.1-8.3-8.7-10.4-13.6-1.9-4.5-2.8-11.5-2.8-21v-70h-22.2z"/></svg>