<?xml version="1.0" encoding="utf-8"?>
<!-- Generator: Adobe Illustrator 19.1.0, SVG Export Plug-In . SVG Version: 6.00 Build 0)  -->
<!DOCTYPE svg PUBLIC "-//W3C//DTD SVG 1.1//EN" "http://www.w3.org/Graphics/SVG/1.1/DTD/svg11.dtd">
<svg version="1.1" id="Layer_1" xmlns="http://www.w3.org/2000/svg" xmlns:xlink="http://www.w3.org/1999/xlink" x="0px" y="0px"
	 width="256.3px" height="256px" viewBox="210.8 444 256.3 256" style="enable-background:new 210.8 444 256.3 256;"
	 xml:space="preserve">
<style type="text/css">
	.st0{fill:#913123;}
</style>
<circle cx="338.2" cy="572" r="128"/>
<g>
	<path class="st0" d="M282.3,554v-28.4c8-2.7,14.7-6.3,20.2-11c5.5-4.4,9.9-10.1,13.4-17.2c3.5-6.8,5.8-15.3,7-25.4h28.6v50.6h47.4
		V554h-47.4v51.2c0,11.5,0.6,18.9,1.8,22.4c1.2,3.2,3.5,5.8,6.8,7.8c4.5,2.7,9.6,4,15.2,4c10.3,0,20.3-3.3,30.2-9.8V661
		c-8.4,4.1-16.1,7-23.2,8.6c-6.9,1.6-14.4,2.4-22.4,2.4c-9.1,0-17.2-1.1-24.4-3.4c-7.3-2.5-13.3-5.9-17.8-10
		c-4.8-4.1-8.3-8.7-10.4-13.6c-1.9-4.5-2.8-11.5-2.8-21v-70H282.3z"/>
</g>
</svg>
